<svg xmlns="http://www.w3.org/2000/svg" width="920" height="300" viewBox="0 0 920 300" fill="none">
  <defs>
    <linearGradient id="bg" x1="0%" y1="0%" x2="100%" y2="100%">
      <stop offset="0%" stop-color="#0f172a"/>
      <stop offset="45%" stop-color="#1e1b4b"/>
      <stop offset="100%" stop-color="#0c4a6e"/>
    </linearGradient>
    <linearGradient id="glow" x1="50%" y1="0%" x2="50%" y2="100%">
      <stop offset="0%" stop-color="#38bdf8" stop-opacity="0.35"/>
      <stop offset="100%" stop-color="#6366f1" stop-opacity="0.08"/>
    </linearGradient>
    <filter id="blur" x="-20%" y="-20%" width="140%" height="140%">
      <feGaussianBlur stdDeviation="24" result="b"/>
      <feMerge>
        <feMergeNode in="b"/>
        <feMergeNode in="SourceGraphic"/>
      </feMerge>
    </filter>
    <filter id="glass" x="-10%" y="-10%" width="120%" height="120%">
      <feGaussianBlur in="SourceGraphic" stdDeviation="0.8" result="blur"/>
      <feColorMatrix in="blur" type="matrix"
        values="1 0 0 0 0  0 1 0 0 0  0 0 1 0 0  0 0 0 0.45 0" result="g"/>
      <feMerge>
        <feMergeNode in="g"/>
        <feMergeNode in="SourceGraphic"/>
      </feMerge>
    </filter>
  </defs>
  <rect width="920" height="300" rx="24" fill="url(#bg)"/>
  <ellipse cx="760" cy="40" rx="180" ry="120" fill="#38bdf8" opacity="0.12" filter="url(#blur)"/>
  <ellipse cx="120" cy="260" rx="200" ry="100" fill="#818cf8" opacity="0.15" filter="url(#blur)"/>
  <rect x="32" y="32" width="856" height="236" rx="20" fill="url(#glow)" opacity="0.5"/>
  <rect x="48" y="48" width="824" height="204" rx="16" fill="rgba(255,255,255,0.04)" stroke="rgba(255,255,255,0.14)" stroke-width="1"/>
  <rect x="64" y="72" width="420" height="156" rx="14" fill="rgba(255,255,255,0.06)" stroke="rgba(255,255,255,0.12)" stroke-width="1" filter="url(#glass)"/>
  <text x="88" y="118" fill="rgba(255,255,255,0.5)" font-family="system-ui, Segoe UI, sans-serif" font-size="13" letter-spacing="0.2em">CSCI 2020U · GROUP 53</text>
  <text x="88" y="168" fill="#f8fafc" font-family="system-ui, Segoe UI, sans-serif" font-size="42" font-weight="700" letter-spacing="-0.02em">Connectly</text>
  <text x="88" y="202" fill="rgba(226,232,240,0.75)" font-family="system-ui, Segoe UI, sans-serif" font-size="15">Real-time rooms · Whiteboard · Presence · SQLite + Socket.io</text>
  <rect x="520" y="88" width="328" height="124" rx="14" fill="rgba(255,255,255,0.05)" stroke="rgba(255,255,255,0.1)" stroke-width="1"/>
  <rect x="540" y="108" width="72" height="8" rx="4" fill="#38bdf8" opacity="0.9">
    <animate attributeName="opacity" values="0.5;1;0.5" dur="2.2s" repeatCount="indefinite"/>
  </rect>
  <rect x="540" y="128" width="288" height="6" rx="3" fill="rgba(255,255,255,0.12)"/>
  <rect x="540" y="144" width="240" height="6" rx="3" fill="rgba(255,255,255,0.08)"/>
  <rect x="540" y="160" width="200" height="6" rx="3" fill="rgba(255,255,255,0.06)"/>
  <circle cx="800" cy="150" r="36" fill="rgba(56,189,248,0.15)" stroke="rgba(255,255,255,0.2)" stroke-width="1"/>
  <path d="M790 150 L798 158 L814 138" stroke="#7dd3fc" stroke-width="3" fill="none" stroke-linecap="round" stroke-linejoin="round" opacity="0.9"/>
</svg>
